{
  "source": "C:\\Users\\Peter\\Desktop\\stuff\\MIUN\\quantitative_research\\video_compression\\videos\\BVI-HD\\BVI-HD_CDVL_videos\\ORIG\\CalmingWater_1920x1080_60fps.mp4",
  "output": "C:\\Users\\Peter\\Desktop\\stuff\\MIUN\\quantitative_research\\video_compression\\compressed_videos\\BVI-HD\\vp9\\4\\CalmingWater_1920x1080_60fps_vp9.webm",
  "codec": "vp9",
  "ok": "Input #0, mov,mp4,m4a,3gp,3g2,mj2, from 'C:\\Users\\Peter\\Desktop\\stuff\\MIUN\\quantitative_research\\video_compression\\videos\\BVI-HD\\BVI-HD_CDVL_videos\\ORIG\\CalmingWater_1920x1080_60fps.mp4':\n  Metadata:\n    major_brand     : isom\n    minor_version   : 512\n    compatible_brands: isomiso2avc1mp41\n    encoder         : Lavf54.28.101\n  Duration: 00:00:05.00, start: 0.000000, bitrate: 623787 kb/s\n  Stream #0:0[0x1](und): Video: h264 (High 4:4:4 Predictive) (avc1 / 0x31637661), yuv420p(progressive), 1920x1080, 623782 kb/s, 60 fps, 60 tbr, 60 tbn (default)\n    Metadata:\n      handler_name    : VideoHandler\n      vendor_id       : [0][0][0][0]\n[out#0/webm @ 0000021b510a9040] Codec AVOption b:a (set bitrate (in bits/s)) has not been used for any stream. The most likely reason is either wrong type (e.g. a video option with no video streams) or that it is a private option of some decoder which was not actually used for any stream.\nStream mapping:\n  Stream #0:0 -> #0:0 (h264 (native) -> vp9 (libvpx-vp9))\nPress [q] to stop, [?] for help\n[libvpx-vp9 @ 0000021b531f0640] v1.15.2-100-g40561f514\nOutput #0, webm, to 'C:\\Users\\Peter\\Desktop\\stuff\\MIUN\\quantitative_research\\video_compression\\compressed_videos\\BVI-HD\\vp9\\4\\CalmingWater_1920x1080_60fps_vp9.webm':\n  Metadata:\n    major_brand     : isom\n    minor_version   : 512\n    compatible_brands: isomiso2avc1mp41\n    encoder         : Lavf62.3.100\n  Stream #0:0(und): Video: vp9, yuv420p(tv, progressive), 1920x1080, q=2-31, 4000 kb/s, 60 fps, 1k tbn (default)\n    Metadata:\n      encoder         : Lavc62.11.100 libvpx-vp9\n      handler_name    : VideoHandler\n      vendor_id       : [0][0][0][0]\n    Side data:\n      cpb: bitrate max/min/avg: 0/0/0 buffer size: 4000000 vbv_delay: N/A\nframe=    0 fps=0.0 q=0.0 size=       0KiB time=N/A bitrate=N/A speed=N/A elapsed=0:00:00.53    \nframe=    2 fps=1.7 q=48.0 size=       1KiB time=00:00:00.03 bitrate= 151.9kbits/s speed=0.0279x elapsed=0:00:01.19    \nframe=    6 fps=3.5 q=63.0 size=       1KiB time=00:00:00.10 bitrate=  50.6kbits/s speed=0.0584x elapsed=0:00:01.71    \nframe=   10 fps=4.4 q=63.0 size=       1KiB time=00:00:00.16 bitrate=  30.4kbits/s speed=0.0741x elapsed=0:00:02.25    \nframe=   13 fps=4.7 q=40.0 size=       1KiB time=00:00:00.21 bitrate=  23.4kbits/s speed=0.0786x elapsed=0:00:02.75    \nframe=   17 fps=5.2 q=63.0 size=       1KiB time=00:00:00.28 bitrate=  17.9kbits/s speed=0.0861x elapsed=0:00:03.29    \nframe=   21 fps=5.5 q=63.0 size=       1KiB time=00:00:00.35 bitrate=  14.5kbits/s speed=0.0916x elapsed=0:00:03.81    \nframe=   24 fps=5.5 q=63.0 size=       1KiB time=00:00:00.40 bitrate=  12.7kbits/s speed=0.0922x elapsed=0:00:04.33    \nframe=   27 fps=5.6 q=63.0 size=       1KiB time=00:00:00.45 bitrate=  11.3kbits/s speed=0.0925x elapsed=0:00:04.86    \nframe=   31 fps=5.7 q=63.0 size=       1KiB time=00:00:00.51 bitrate=   9.8kbits/s speed=0.0958x elapsed=0:00:05.39    \nframe=   35 fps=5.9 q=63.0 size=       1KiB time=00:00:00.58 bitrate=   8.7kbits/s speed=0.0986x elapsed=0:00:05.91    \nframe=   38 fps=5.9 q=63.0 size=       1KiB time=00:00:00.63 bitrate=   8.0kbits/s speed=0.0984x elapsed=0:00:06.43    \nframe=   42 fps=6.0 q=63.0 size=       1KiB time=00:00:00.70 bitrate=   7.2kbits/s speed= 0.1x elapsed=0:00:06.97    \nframe=   44 fps=5.9 q=63.0 size=       1KiB time=00:00:00.73 bitrate=   6.9kbits/s speed=0.0976x elapsed=0:00:07.51    \nframe=   48 fps=6.0 q=63.0 size=       1KiB time=00:00:00.80 bitrate=   6.3kbits/s speed=0.0996x elapsed=0:00:08.03    \nframe=   51 fps=5.9 q=63.0 size=       1KiB time=00:00:00.85 bitrate=   6.0kbits/s speed=0.0991x elapsed=0:00:08.57    \nframe=   54 fps=5.9 q=63.0 size=       1KiB time=00:00:00.90 bitrate=   5.6kbits/s speed=0.0987x elapsed=0:00:09.12    \nframe=   58 fps=6.0 q=63.0 size=       1KiB time=00:00:00.96 bitrate=   5.2kbits/s speed= 0.1x elapsed=0:00:09.64    \nframe=   60 fps=5.9 q=63.0 size=       1KiB time=00:00:01.00 bitrate=   5.1kbits/s speed=0.0981x elapsed=0:00:10.19    \nframe=   64 fps=6.0 q=63.0 size=       1KiB time=00:00:01.06 bitrate=   4.7kbits/s speed=0.0996x elapsed=0:00:10.70    \nframe=   67 fps=6.0 q=52.0 size=       1KiB time=00:00:01.11 bitrate=   4.5kbits/s speed=0.0993x elapsed=0:00:11.24    \nframe=   71 fps=6.0 q=63.0 size=       1KiB time=00:00:01.18 bitrate=   4.3kbits/s speed=0.101x elapsed=0:00:11.76    \nframe=   74 fps=6.0 q=63.0 size=       1KiB time=00:00:01.23 bitrate=   4.1kbits/s speed= 0.1x elapsed=0:00:12.30    \nframe=   78 fps=6.1 q=63.0 size=       1KiB time=00:00:01.28 bitrate=   3.9kbits/s speed= 0.1x elapsed=0:00:12.83    \nframe=   80 fps=6.0 q=63.0 size=       1KiB time=00:00:01.33 bitrate=   3.8kbits/s speed=0.0999x elapsed=0:00:13.35    \nframe=   84 fps=6.1 q=63.0 size=       1KiB time=00:00:01.40 bitrate=   3.6kbits/s speed=0.101x elapsed=0:00:13.87    \nframe=   86 fps=6.0 q=63.0 size=       1KiB time=00:00:01.43 bitrate=   3.5kbits/s speed=0.0995x elapsed=0:00:14.41    \nframe=   90 fps=6.0 q=63.0 size=       1KiB time=00:00:01.50 bitrate=   3.4kbits/s speed= 0.1x elapsed=0:00:14.92    \nframe=   93 fps=6.0 q=63.0 size=       1KiB time=00:00:01.55 bitrate=   3.3kbits/s speed= 0.1x elapsed=0:00:15.46    \nframe=   96 fps=6.0 q=63.0 size=       1KiB time=00:00:01.60 bitrate=   3.2kbits/s speed= 0.1x elapsed=0:00:15.99    \nframe=  100 fps=6.0 q=63.0 size=       1KiB time=00:00:01.66 bitrate=   3.0kbits/s speed=0.101x elapsed=0:00:16.53    \nframe=  103 fps=6.0 q=52.0 size=       1KiB time=00:00:01.71 bitrate=   2.9kbits/s speed= 0.1x elapsed=0:00:17.08    \nframe=  107 fps=6.1 q=63.0 size=       1KiB time=00:00:01.78 bitrate=   2.8kbits/s speed=0.101x elapsed=0:00:17.62    \nframe=  110 fps=6.1 q=63.0 size=       1KiB time=00:00:01.83 bitrate=   2.8kbits/s speed=0.101x elapsed=0:00:18.17    \nframe=  114 fps=6.1 q=63.0 size=       1KiB time=00:00:01.90 bitrate=   2.7kbits/s speed=0.101x elapsed=0:00:18.71    \nframe=  117 fps=6.1 q=63.0 size=       1KiB time=00:00:01.95 bitrate=   2.6kbits/s speed=0.101x elapsed=0:00:19.26    \nframe=  120 fps=6.1 q=63.0 size=       1KiB time=00:00:02.00 bitrate=   2.5kbits/s speed=0.101x elapsed=0:00:19.79    \nframe=  123 fps=6.1 q=63.0 size=       1KiB time=00:00:02.05 bitrate=   2.5kbits/s speed=0.101x elapsed=0:00:20.31    \nframe=  127 fps=6.1 q=63.0 size=       1KiB time=00:00:02.11 bitrate=   2.4kbits/s speed=0.101x elapsed=0:00:20.86    \nframe=  130 fps=6.1 q=63.0 size=    1024KiB time=00:00:02.16 bitrate=3871.7kbits/s speed=0.101x elapsed=0:00:21.39    \nframe=  134 fps=6.1 q=63.0 size=    1024KiB time=00:00:02.23 bitrate=3756.1kbits/s speed=0.102x elapsed=0:00:21.91    \nframe=  137 fps=6.1 q=63.0 size=    1024KiB time=00:00:02.28 bitrate=3673.8kbits/s speed=0.102x elapsed=0:00:22.45    \nframe=  140 fps=6.1 q=63.0 size=    1024KiB time=00:00:02.33 bitrate=3595.1kbits/s speed=0.102x elapsed=0:00:22.95    \nframe=  144 fps=6.1 q=63.0 size=    1024KiB time=00:00:02.40 bitrate=3495.3kbits/s speed=0.102x elapsed=0:00:23.47    \nframe=  147 fps=6.1 q=51.0 size=    1024KiB time=00:00:02.45 bitrate=3423.9kbits/s speed=0.102x elapsed=0:00:23.99    \nframe=  150 fps=6.1 q=63.0 size=    1024KiB time=00:00:02.50 bitrate=3355.4kbits/s speed=0.102x elapsed=0:00:24.51    \nframe=  153 fps=6.1 q=51.0 size=    1024KiB time=00:00:02.55 bitrate=3289.7kbits/s speed=0.102x elapsed=0:00:25.04    \nframe=  157 fps=6.1 q=63.0 size=    1024KiB time=00:00:02.61 bitrate=3205.8kbits/s speed=0.102x elapsed=0:00:25.54    \nframe=  160 fps=6.1 q=63.0 size=    1024KiB time=00:00:02.66 bitrate=3145.7kbits/s speed=0.102x elapsed=0:00:26.07    \nframe=  164 fps=6.2 q=63.0 size=    1024KiB time=00:00:02.73 bitrate=3069.0kbits/s speed=0.103x elapsed=0:00:26.59    \nframe=  167 fps=6.2 q=63.0 size=    1024KiB time=00:00:02.78 bitrate=3013.9kbits/s speed=0.103x elapsed=0:00:27.11    \nframe=  170 fps=6.1 q=63.0 size=    1024KiB time=00:00:02.83 bitrate=2960.7kbits/s speed=0.102x elapsed=0:00:27.67    \nframe=  174 fps=6.2 q=63.0 size=    1024KiB time=00:00:02.90 bitrate=2892.6kbits/s speed=0.103x elapsed=0:00:28.21    \nframe=  177 fps=6.2 q=50.0 size=    1024KiB time=00:00:02.95 bitrate=2843.6kbits/s speed=0.103x elapsed=0:00:28.76    \nframe=  180 fps=6.1 q=62.0 size=    1024KiB time=00:00:03.00 bitrate=2796.2kbits/s speed=0.102x elapsed=0:00:29.30    \nframe=  184 fps=6.2 q=62.0 size=    1024KiB time=00:00:03.06 bitrate=2735.4kbits/s speed=0.103x elapsed=0:00:29.83    \nframe=  187 fps=6.2 q=62.0 size=    1024KiB time=00:00:03.11 bitrate=2691.5kbits/s speed=0.103x elapsed=0:00:30.37    \nframe=  190 fps=6.1 q=62.0 size=    1024KiB time=00:00:03.16 bitrate=2649.0kbits/s speed=0.102x elapsed=0:00:30.90    \nframe=  194 fps=6.2 q=62.0 size=    1024KiB time=00:00:03.23 bitrate=2594.4kbits/s speed=0.103x elapsed=0:00:31.41    \nframe=  197 fps=6.2 q=62.0 size=    1024KiB time=00:00:03.28 bitrate=2554.9kbits/s speed=0.103x elapsed=0:00:31.94    \nframe=  199 fps=6.1 q=62.0 size=    1024KiB time=00:00:03.31 bitrate=2529.2kbits/s speed=0.102x elapsed=0:00:32.46    \nframe=  202 fps=6.1 q=61.0 size=    1024KiB time=00:00:03.36 bitrate=2491.7kbits/s speed=0.102x elapsed=0:00:32.98    \nframe=  205 fps=6.1 q=62.0 size=    1024KiB time=00:00:03.41 bitrate=2455.2kbits/s speed=0.102x elapsed=0:00:33.52    \nframe=  207 fps=6.1 q=62.0 size=    1024KiB time=00:00:03.45 bitrate=2431.5kbits/s speed=0.101x elapsed=0:00:34.07    \nframe=  209 fps=6.0 q=61.0 size=    1024KiB time=00:00:03.48 bitrate=2408.2kbits/s speed= 0.1x elapsed=0:00:34.72    \nframe=  211 fps=6.0 q=61.0 size=    1024KiB time=00:00:03.50 bitrate=2396.7kbits/s speed=0.099x elapsed=0:00:35.35    \nframe=  211 fps=5.9 q=61.0 size=    1024KiB time=00:00:03.51 bitrate=2385.4kbits/s speed=0.0977x elapsed=0:00:35.97    \nframe=  213 fps=5.8 q=61.0 size=    1024KiB time=00:00:03.55 bitrate=2363.0kbits/s speed=0.0971x elapsed=0:00:36.55    \nframe=  215 fps=5.8 q=61.0 size=    1024KiB time=00:00:03.58 bitrate=2341.0kbits/s speed=0.0965x elapsed=0:00:37.11    \nframe=  218 fps=5.8 q=61.0 size=    1024KiB time=00:00:03.63 bitrate=2308.8kbits/s speed=0.0964x elapsed=0:00:37.70    \nframe=  221 fps=5.8 q=61.0 size=    1024KiB time=00:00:03.68 bitrate=2277.5kbits/s speed=0.0962x elapsed=0:00:38.28    \nframe=  223 fps=5.7 q=61.0 size=    1024KiB time=00:00:03.71 bitrate=2257.0kbits/s speed=0.0956x elapsed=0:00:38.88    \nframe=  225 fps=5.7 q=61.0 size=    1024KiB time=00:00:03.75 bitrate=2237.0kbits/s speed=0.0951x elapsed=0:00:39.44    \nframe=  228 fps=5.7 q=61.0 size=    1024KiB time=00:00:03.80 bitrate=2207.5kbits/s speed=0.0951x elapsed=0:00:39.96    \nframe=  230 fps=5.7 q=61.0 size=    1024KiB time=00:00:03.83 bitrate=2188.3kbits/s speed=0.0945x elapsed=0:00:40.57    \nframe=  232 fps=5.6 q=61.0 size=    1024KiB time=00:00:03.86 bitrate=2169.5kbits/s speed=0.0937x elapsed=0:00:41.26    \nframe=  233 fps=5.6 q=61.0 size=    1024KiB time=00:00:03.88 bitrate=2160.2kbits/s speed=0.0927x elapsed=0:00:41.88    \nframe=  235 fps=5.5 q=61.0 size=    1024KiB time=00:00:03.91 bitrate=2141.8kbits/s speed=0.0921x elapsed=0:00:42.52    \nframe=  236 fps=5.5 q=46.0 size=    1024KiB time=00:00:03.93 bitrate=2132.7kbits/s speed=0.0911x elapsed=0:00:43.16    \nframe=  238 fps=5.4 q=61.0 size=    1024KiB time=00:00:03.96 bitrate=2114.8kbits/s speed=0.0906x elapsed=0:00:43.78    \nframe=  240 fps=5.4 q=61.0 size=    1024KiB time=00:00:04.00 bitrate=2097.2kbits/s speed=0.09x elapsed=0:00:44.42    \nframe=  242 fps=5.4 q=61.0 size=    1024KiB time=00:00:04.03 bitrate=2079.8kbits/s speed=0.0897x elapsed=0:00:44.96    \nframe=  244 fps=5.4 q=61.0 size=    1024KiB time=00:00:04.06 bitrate=2062.8kbits/s speed=0.0893x elapsed=0:00:45.51    \nframe=  245 fps=5.3 q=61.0 size=    1024KiB time=00:00:04.08 bitrate=2054.4kbits/s speed=0.0885x elapsed=0:00:46.15    \nframe=  246 fps=5.2 q=46.0 size=    1024KiB time=00:00:04.10 bitrate=2046.0kbits/s speed=0.0874x elapsed=0:00:46.89    \nframe=  248 fps=5.2 q=61.0 size=    1024KiB time=00:00:04.13 bitrate=2029.5kbits/s speed=0.0869x elapsed=0:00:47.56    \nframe=  249 fps=5.2 q=61.0 size=    1024KiB time=00:00:04.15 bitrate=2021.4kbits/s speed=0.0861x elapsed=0:00:48.21    \nframe=  251 fps=5.1 q=61.0 size=    1024KiB time=00:00:04.18 bitrate=2005.2kbits/s speed=0.0855x elapsed=0:00:48.91    \nframe=  253 fps=5.1 q=61.0 size=    1024KiB time=00:00:04.21 bitrate=1989.4kbits/s speed=0.0851x elapsed=0:00:49.55    \nframe=  255 fps=5.1 q=61.0 size=    1024KiB time=00:00:04.25 bitrate=1973.8kbits/s speed=0.0846x elapsed=0:00:50.22    \nframe=  256 fps=5.0 q=61.0 size=    1024KiB time=00:00:04.26 bitrate=1966.1kbits/s speed=0.0839x elapsed=0:00:50.82    \nframe=  259 fps=5.0 q=61.0 size=    2048KiB time=00:00:04.30 bitrate=3901.7kbits/s speed=0.0835x elapsed=0:00:51.48    \nframe=  260 fps=5.0 q=61.0 size=    2048KiB time=00:00:04.33 bitrate=3871.7kbits/s speed=0.0831x elapsed=0:00:52.17    \nframe=  262 fps=5.0 q=61.0 size=    2048KiB time=00:00:04.35 bitrate=3856.8kbits/s speed=0.0823x elapsed=0:00:52.85    \nframe=  264 fps=4.9 q=61.0 size=    2048KiB time=00:00:04.40 bitrate=3813.0kbits/s speed=0.0821x elapsed=0:00:53.58    \nframe=  266 fps=4.9 q=61.0 size=    2048KiB time=00:00:04.43 bitrate=3784.3kbits/s speed=0.0817x elapsed=0:00:54.23    \nframe=  268 fps=4.9 q=61.0 size=    2048KiB time=00:00:04.46 bitrate=3756.1kbits/s speed=0.0815x elapsed=0:00:54.81    \nframe=  269 fps=4.9 q=44.0 size=    2048KiB time=00:00:04.48 bitrate=3742.1kbits/s speed=0.0809x elapsed=0:00:55.43    \nframe=  271 fps=4.8 q=60.0 size=    2048KiB time=00:00:04.51 bitrate=3714.5kbits/s speed=0.0806x elapsed=0:00:56.05    \nframe=  273 fps=4.8 q=61.0 size=    2048KiB time=00:00:04.53 bitrate=3700.9kbits/s speed=0.08x elapsed=0:00:56.65    \nframe=  274 fps=4.8 q=61.0 size=    2048KiB time=00:00:04.56 bitrate=3673.8kbits/s speed=0.0797x elapsed=0:00:57.27    \nframe=  276 fps=4.8 q=61.0 size=    2048KiB time=00:00:04.60 bitrate=3647.2kbits/s speed=0.0793x elapsed=0:00:57.97    \nframe=  276 fps=4.7 q=61.0 size=    2048KiB time=00:00:04.60 bitrate=3647.2kbits/s speed=0.0785x elapsed=0:00:58.61    \nframe=  276 fps=4.7 q=61.0 size=    2048KiB time=00:00:04.60 bitrate=3647.2kbits/s speed=0.0776x elapsed=0:00:59.24    \nframe=  276 fps=4.6 q=61.0 size=    2048KiB time=00:00:04.60 bitrate=3647.2kbits/s speed=0.0768x elapsed=0:00:59.92    \nframe=  276 fps=4.6 q=61.0 size=    2048KiB time=00:00:04.60 bitrate=3647.2kbits/s speed=0.0759x elapsed=0:01:00.57    \nframe=  276 fps=4.5 q=61.0 size=    2048KiB time=00:00:04.60 bitrate=3647.2kbits/s speed=0.0751x elapsed=0:01:01.21    \nframe=  276 fps=4.5 q=61.0 size=    2048KiB time=00:00:04.60 bitrate=3647.2kbits/s speed=0.0744x elapsed=0:01:01.81    \nframe=  276 fps=4.4 q=61.0 size=    2048KiB time=00:00:04.60 bitrate=3647.2kbits/s speed=0.0736x elapsed=0:01:02.46    \nframe=  276 fps=4.4 q=61.0 size=    2048KiB time=00:00:04.60 bitrate=3647.2kbits/s speed=0.0729x elapsed=0:01:03.10    \nframe=  276 fps=4.3 q=61.0 size=    2048KiB time=00:00:04.60 bitrate=3647.2kbits/s speed=0.0722x elapsed=0:01:03.70    \nframe=  276 fps=4.3 q=61.0 size=    2048KiB time=00:00:04.60 bitrate=3647.2kbits/s speed=0.0715x elapsed=0:01:04.35    \nframe=  276 fps=4.2 q=61.0 size=    2048KiB time=00:00:04.60 bitrate=3647.2kbits/s speed=0.0708x elapsed=0:01:04.95    \nframe=  276 fps=4.2 q=61.0 size=    2048KiB time=00:00:04.60 bitrate=3647.2kbits/s speed=0.0702x elapsed=0:01:05.51    \nframe=  276 fps=4.2 q=61.0 size=    2048KiB time=00:00:04.60 bitrate=3647.2kbits/s speed=0.0696x elapsed=0:01:06.06    \n[out#0/webm @ 0000021b510a9040] video:2531KiB audio:0KiB subtitle:0KiB other streams:0KiB global headers:0KiB muxing overhead: 0.110505%\nframe=  300 fps=4.5 q=60.0 Lsize=    2534KiB time=00:00:05.00 bitrate=4151.4kbits/s speed=0.0756x elapsed=0:01:06.11    \n",
  "seconds": 66.77235150337219,
  "probe_out": {}
}